<svg viewBox="0 0 1077 565" fill="none" xmlns="http://www.w3.org/2000/svg">
<g clip-path="url(#clip0)">
<path d="M149 61H421" stroke="#E5E5E5" stroke-width="2"/>
<path d="M160 73L148 61L160 49" stroke="#E5E5E5" stroke-width="2"/>
<path d="M172.805 54H170.625V39.5508L166.254 41.1562V39.1875L172.465 36.8555H172.805V54Z" fill="#E5E5E5"/>
<path d="M410 49L422 61L410 73" stroke="#E5E5E5" stroke-width="2"/>
<path d="M403.805 55H401.625V40.5508L397.254 42.1562V40.1875L403.465 37.8555H403.805V55Z" fill="#E5E5E5"/>
<path d="M582 61H877" stroke="#E5E5E5" stroke-width="2"/>
<path d="M593 73L581 61L593 49" stroke="#E5E5E5" stroke-width="2"/>
<path d="M604.805 54H602.625V39.5508L598.254 41.1562V39.1875L604.465 36.8555H604.805V54Z" fill="#E5E5E5"/>
<path d="M866 49L878 61L866 73" stroke="#E5E5E5" stroke-width="2"/>
<path d="M852.07 40.3203L852.141 41.9141C853.109 40.6953 854.375 40.0859 855.938 40.0859C858.617 40.0859 859.969 41.5977 859.992 44.6211V53H857.824V44.6094C857.816 43.6953 857.605 43.0195 857.191 42.582C856.785 42.1445 856.148 41.9258 855.281 41.9258C854.578 41.9258 853.961 42.1133 853.43 42.4883C852.898 42.8633 852.484 43.3555 852.188 43.9648V53H850.02V40.3203H852.07Z" fill="#E5E5E5"/>
<path d="M65 158V373" stroke="#E5E5E5" stroke-width="2"/>
<path d="M53 169L65 157L77 169" stroke="#E5E5E5" stroke-width="2"/>
<path d="M77 362L65 374L53 362" stroke="#E5E5E5" stroke-width="2"/>
<path d="M58.0687 355H55.889V340.551L51.5179 342.156V340.188L57.7288 337.855H58.0687V355Z" fill="#E5E5E5"/>
<path d="M1064.35 7.20832L1022.68 7.16666C1018.1 7.16666 1014.35 10.9167 1014.35 15.5V90.5C1014.35 95.0833 1018.1 98.8333 1022.68 98.8333H1064.35C1068.93 98.8333 1072.68 95.0833 1072.68 90.5V15.5C1072.68 10.9167 1068.93 7.20832 1064.35 7.20832ZM1064.35 82.1666H1022.68V23.8333H1064.35V82.1666Z" fill="#4285F4"/>
<g clip-path="url(#clip1)">
<path d="M1063.04 51.1625L1054.82 36.8688C1054.51 36.3206 1054.06 35.8628 1053.52 35.5405C1052.98 35.2182 1052.37 35.0426 1051.74 35.0312H1035.3C1034.67 35.0423 1034.05 35.2177 1033.51 35.5401C1032.97 35.8624 1032.53 36.3204 1032.22 36.8688L1023.99 51.125C1023.68 51.6689 1023.52 52.2852 1023.52 52.9125C1023.52 53.5398 1023.68 54.1561 1023.99 54.7L1032.21 69.075C1032.52 69.6311 1032.96 70.0986 1033.5 70.4321C1034.04 70.7656 1034.66 70.9537 1035.29 70.9781H1051.74C1052.37 70.9564 1052.99 70.7704 1053.53 70.4385C1054.07 70.1065 1054.51 69.64 1054.82 69.0844L1063.04 54.7906C1063.35 54.2379 1063.52 53.6127 1063.52 52.9766C1063.52 52.3404 1063.35 51.7153 1063.04 51.1625V51.1625Z" fill="#4285F4"/>
<path opacity="0.07" d="M1053.33 46.5969L1052.62 47.2219L1047.12 44.1062L1044.5 41.4875L1033.8 48.3969L1034.41 49.0031L1034.28 56.8156L1033.81 58.6594L1046.1 70.9687H1051.73C1052.36 70.947 1052.98 70.761 1053.52 70.4291C1054.06 70.0971 1054.51 69.6306 1054.81 69.075L1062.48 55.7437L1053.33 46.5969Z" fill="black"/>
<path d="M1043.6 43.6687C1044.31 43.6687 1044.88 43.0979 1044.88 42.3937C1044.88 41.6896 1044.31 41.1187 1043.6 41.1187C1042.9 41.1187 1042.33 41.6896 1042.33 42.3937C1042.33 43.0979 1042.9 43.6687 1043.6 43.6687Z" fill="white"/>
<path d="M1052.43 48.775C1053.14 48.775 1053.71 48.2042 1053.71 47.5C1053.71 46.7958 1053.14 46.225 1052.43 46.225C1051.73 46.225 1051.16 46.7958 1051.16 47.5C1051.16 48.2042 1051.73 48.775 1052.43 48.775Z" fill="white"/>
<path d="M1034.71 48.775C1035.41 48.775 1035.98 48.2042 1035.98 47.5C1035.98 46.7958 1035.41 46.225 1034.71 46.225C1034.01 46.225 1033.43 46.7958 1033.43 47.5C1033.43 48.2042 1034.01 48.775 1034.71 48.775Z" fill="white"/>
<path d="M1043.6 54.9844C1044.71 54.9844 1045.61 54.0875 1045.61 52.9812C1045.61 51.8749 1044.71 50.9781 1043.6 50.9781C1042.5 50.9781 1041.6 51.8749 1041.6 52.9812C1041.6 54.0875 1042.5 54.9844 1043.6 54.9844Z" fill="white"/>
<path d="M1052.43 59.0469C1053.14 59.0469 1053.71 58.476 1053.71 57.7719C1053.71 57.0677 1053.14 56.4969 1052.43 56.4969C1051.73 56.4969 1051.16 57.0677 1051.16 57.7719C1051.16 58.476 1051.73 59.0469 1052.43 59.0469Z" fill="white"/>
<path d="M1034.71 59.0469C1035.41 59.0469 1035.98 58.476 1035.98 57.7719C1035.98 57.0677 1035.41 56.4969 1034.71 56.4969C1034.01 56.4969 1033.43 57.0677 1033.43 57.7719C1033.43 58.476 1034.01 59.0469 1034.71 59.0469Z" fill="white"/>
<path d="M1043.56 53.4156L1033.71 47.5063L1043.56 41.8094L1053.4 47.3969L1043.56 53.4156ZM1035.53 47.5219L1043.56 52.3344L1051.58 47.4281L1043.57 42.875L1035.53 47.5219Z" fill="white"/>
<path d="M1043.56 64.3406L1033.68 57.7125L1043.59 52.225L1053.33 57.7719L1043.56 64.3406ZM1035.44 57.7781L1043.56 63.2188L1051.58 57.8375L1043.58 53.2844L1035.44 57.7781Z" fill="white"/>
<path d="M1034.97 47.2414L1034.16 47.687L1043.1 63.9371L1043.91 63.4914L1034.97 47.2414Z" fill="white"/>
<path d="M1051.94 47.405L1043.21 63.6113L1044.03 64.0499L1052.75 47.8436L1051.94 47.405Z" fill="white"/>
<path d="M1043.1 42.1959L1034.28 57.4704L1035.08 57.9329L1043.9 42.6584L1043.1 42.1959Z" fill="white"/>
<path d="M1044.02 42.1148L1043.22 42.5729L1052.07 58.0904L1052.87 57.6322L1044.02 42.1148Z" fill="white"/>
<path d="M1044.07 42.2625H1043.14V63.7H1044.07V42.2625Z" fill="white"/>
<path d="M1035.01 47.6062H1034.08V57.95H1035.01V47.6062Z" fill="white"/>
<path d="M1052.89 47.4969H1051.97V57.8406H1052.89V47.4969Z" fill="white"/>
<path d="M1043.6 65.0156C1044.31 65.0156 1044.88 64.4448 1044.88 63.7406C1044.88 63.0365 1044.31 62.4656 1043.6 62.4656C1042.9 62.4656 1042.33 63.0365 1042.33 63.7406C1042.33 64.4448 1042.9 65.0156 1043.6 65.0156Z" fill="white"/>
</g>
<path d="M970.417 133.586C970.206 135.391 969.538 136.785 968.413 137.77C967.296 138.746 965.808 139.234 963.948 139.234C961.933 139.234 960.316 138.512 959.097 137.066C957.886 135.621 957.28 133.688 957.28 131.266V129.625C957.28 128.039 957.562 126.645 958.124 125.441C958.694 124.238 959.499 123.316 960.538 122.676C961.577 122.027 962.78 121.703 964.148 121.703C965.96 121.703 967.413 122.211 968.507 123.227C969.601 124.234 970.237 125.633 970.417 127.422H968.155C967.96 126.062 967.534 125.078 966.878 124.469C966.23 123.859 965.319 123.555 964.148 123.555C962.71 123.555 961.581 124.086 960.761 125.148C959.948 126.211 959.542 127.723 959.542 129.684V131.336C959.542 133.188 959.929 134.66 960.702 135.754C961.476 136.848 962.558 137.395 963.948 137.395C965.198 137.395 966.155 137.113 966.819 136.551C967.491 135.98 967.937 134.992 968.155 133.586H970.417ZM975.515 139H973.347V121H975.515V139ZM981.351 139H979.183V126.32H981.351V139ZM979.007 122.957C979.007 122.605 979.112 122.309 979.323 122.066C979.542 121.824 979.862 121.703 980.284 121.703C980.706 121.703 981.026 121.824 981.245 122.066C981.464 122.309 981.573 122.605 981.573 122.957C981.573 123.309 981.464 123.602 981.245 123.836C981.026 124.07 980.706 124.188 980.284 124.188C979.862 124.188 979.542 124.07 979.323 123.836C979.112 123.602 979.007 123.309 979.007 122.957ZM990.093 139.234C988.374 139.234 986.976 138.672 985.898 137.547C984.819 136.414 984.28 134.902 984.28 133.012V132.613C984.28 131.355 984.519 130.234 984.995 129.25C985.48 128.258 986.151 127.484 987.011 126.93C987.878 126.367 988.816 126.086 989.823 126.086C991.472 126.086 992.753 126.629 993.667 127.715C994.581 128.801 995.038 130.355 995.038 132.379V133.281H986.448C986.48 134.531 986.843 135.543 987.538 136.316C988.241 137.082 989.132 137.465 990.21 137.465C990.976 137.465 991.624 137.309 992.155 136.996C992.687 136.684 993.151 136.27 993.55 135.754L994.874 136.785C993.812 138.418 992.218 139.234 990.093 139.234ZM989.823 127.867C988.948 127.867 988.214 128.188 987.62 128.828C987.026 129.461 986.659 130.352 986.519 131.5H992.87V131.336C992.808 130.234 992.511 129.383 991.98 128.781C991.448 128.172 990.73 127.867 989.823 127.867ZM999.608 126.32L999.679 127.914C1000.65 126.695 1001.91 126.086 1003.48 126.086C1006.16 126.086 1007.51 127.598 1007.53 130.621V139H1005.36V130.609C1005.35 129.695 1005.14 129.02 1004.73 128.582C1004.32 128.145 1003.69 127.926 1002.82 127.926C1002.12 127.926 1001.5 128.113 1000.97 128.488C1000.44 128.863 1000.02 129.355 999.726 129.965V139H997.558V126.32H999.608ZM1013.74 123.25V126.32H1016.11V127.996H1013.74V135.859C1013.74 136.367 1013.85 136.75 1014.06 137.008C1014.27 137.258 1014.63 137.383 1015.14 137.383C1015.39 137.383 1015.73 137.336 1016.17 137.242V139C1015.6 139.156 1015.04 139.234 1014.5 139.234C1013.53 139.234 1012.8 138.941 1012.31 138.355C1011.82 137.77 1011.57 136.938 1011.57 135.859V127.996H1009.26V126.32H1011.57V123.25H1013.74Z" fill="#E5E5E5"/>
<g clip-path="url(#clip2)">
<path d="M1003.1 87.75V9.625H898.933V87.75H888.516V98.1667H1013.52V87.75H1003.1ZM961.433 87.75H940.599V82.5417H961.433V87.75ZM992.683 72.125H909.349V20.0417H992.683V72.125Z" fill="#4285F4"/>
<g clip-path="url(#clip3)">
<path d="M972.002 42.5247L963.167 27.1589C962.835 26.5697 962.355 26.0775 961.774 25.731C961.193 25.3845 960.531 25.1958 959.855 25.1836H942.181C941.505 25.1955 940.843 25.3841 940.262 25.7306C939.681 26.0771 939.201 26.5695 938.869 27.1589L930.03 42.4844C929.694 43.069 929.517 43.7316 929.517 44.4059C929.517 45.0803 929.694 45.7428 930.03 46.3275L938.865 61.7806C939.194 62.3784 939.672 62.881 940.252 63.2395C940.833 63.598 941.496 63.8002 942.178 63.8265H959.851C960.533 63.8031 961.197 63.6032 961.778 63.2464C962.359 62.8895 962.838 62.388 963.167 61.7907L972.002 46.4249C972.341 45.8307 972.519 45.1586 972.519 44.4748C972.519 43.791 972.341 43.1189 972.002 42.5247V42.5247Z" fill="#4285F4"/>
<path opacity="0.07" d="M961.571 37.6166L960.805 38.2885L954.889 34.9392L952.074 32.1241L940.575 39.5516L941.227 40.2034L941.089 48.6018L940.578 50.5838L953.798 63.8164H959.844C960.526 63.793 961.19 63.5931 961.771 63.2363C962.352 62.8794 962.831 62.3779 963.16 61.7806L971.407 47.4495L961.571 37.6166Z" fill="black"/>
<path d="M951.11 34.4689C951.867 34.4689 952.481 33.8553 952.481 33.0983C952.481 32.3413 951.867 31.7277 951.11 31.7277C950.353 31.7277 949.739 32.3413 949.739 33.0983C949.739 33.8553 950.353 34.4689 951.11 34.4689Z" fill="white"/>
<path d="M960.604 39.9581C961.361 39.9581 961.974 39.3445 961.974 38.5875C961.974 37.8305 961.361 37.2169 960.604 37.2169C959.847 37.2169 959.233 37.8305 959.233 38.5875C959.233 39.3445 959.847 39.9581 960.604 39.9581Z" fill="white"/>
<path d="M941.549 39.9581C942.306 39.9581 942.92 39.3445 942.92 38.5875C942.92 37.8305 942.306 37.2169 941.549 37.2169C940.792 37.2169 940.179 37.8305 940.179 38.5875C940.179 39.3445 940.792 39.9581 941.549 39.9581Z" fill="white"/>
<path d="M951.11 46.6332C952.299 46.6332 953.263 45.6691 953.263 44.4798C953.263 43.2906 952.299 42.3265 951.11 42.3265C949.921 42.3265 948.957 43.2906 948.957 44.4798C948.957 45.6691 949.921 46.6332 951.11 46.6332Z" fill="white"/>
<path d="M960.604 51.0004C961.361 51.0004 961.974 50.3867 961.974 49.6298C961.974 48.8728 961.361 48.2591 960.604 48.2591C959.847 48.2591 959.233 48.8728 959.233 49.6298C959.233 50.3867 959.847 51.0004 960.604 51.0004Z" fill="white"/>
<path d="M941.549 51.0004C942.306 51.0004 942.92 50.3867 942.92 49.6298C942.92 48.8728 942.306 48.2591 941.549 48.2591C940.792 48.2591 940.179 48.8728 940.179 49.6298C940.179 50.3867 940.792 51.0004 941.549 51.0004Z" fill="white"/>
<path d="M951.063 44.9468L940.474 38.5942L951.063 32.4701L961.645 38.4767L951.063 44.9468ZM942.433 38.611L951.06 43.7845L959.69 38.5102L951.07 33.6156L942.433 38.611Z" fill="white"/>
<path d="M951.066 56.6912L940.444 49.5659L951.097 43.6669L961.564 49.6298L951.066 56.6912ZM942.332 49.6365L951.066 55.4852L959.68 49.7003L951.09 44.8057L942.332 49.6365Z" fill="white"/>
<path d="M941.832 38.3095L940.961 38.7886L950.564 56.2573L951.436 55.7783L941.832 38.3095Z" fill="white"/>
<path d="M960.07 38.4854L950.69 55.9072L951.565 56.3786L960.946 38.9568L960.07 38.4854Z" fill="white"/>
<path d="M950.565 32.8855L941.085 49.3057L941.946 49.8029L951.426 33.3827L950.565 32.8855Z" fill="white"/>
<path d="M951.561 32.7984L950.698 33.2909L960.209 49.9722L961.072 49.4797L951.561 32.7984Z" fill="white"/>
<path d="M951.611 32.9572H950.616V56.0025H951.611V32.9572Z" fill="white"/>
<path d="M941.872 38.7017H940.877V49.8213H941.872V38.7017Z" fill="white"/>
<path d="M961.097 38.5841H960.103V49.7037H961.097V38.5841Z" fill="white"/>
<path d="M951.11 57.4168C951.867 57.4168 952.481 56.8032 952.481 56.0462C952.481 55.2892 951.867 54.6756 951.11 54.6756C950.353 54.6756 949.739 55.2892 949.739 56.0462C949.739 56.8032 950.353 57.4168 951.11 57.4168Z" fill="white"/>
</g>
</g>
<path d="M16.5828 544V526.938H21.3992C22.8836 526.938 24.1961 527.266 25.3367 527.922C26.4774 528.578 27.3563 529.512 27.9735 530.723C28.5985 531.934 28.9149 533.324 28.9227 534.895V535.984C28.9227 537.594 28.6102 539.004 27.9852 540.215C27.368 541.426 26.4813 542.355 25.325 543.004C24.1766 543.652 22.8367 543.984 21.3055 544H16.5828ZM18.8328 528.789V542.16H21.2C22.9344 542.16 24.2821 541.621 25.243 540.543C26.2117 539.465 26.6961 537.93 26.6961 535.938V534.941C26.6961 533.004 26.2391 531.5 25.325 530.43C24.4188 529.352 23.1297 528.805 21.4578 528.789H18.8328ZM39.8211 544C39.6961 543.75 39.5946 543.305 39.5164 542.664C38.5086 543.711 37.3055 544.234 35.9071 544.234C34.6571 544.234 33.6297 543.883 32.825 543.18C32.0282 542.469 31.6297 541.57 31.6297 540.484C31.6297 539.164 32.1297 538.141 33.1297 537.414C34.1375 536.68 35.5516 536.312 37.3719 536.312H39.4813V535.316C39.4813 534.559 39.2547 533.957 38.8016 533.512C38.3485 533.059 37.6805 532.832 36.7977 532.832C36.0242 532.832 35.3758 533.027 34.8524 533.418C34.3289 533.809 34.0672 534.281 34.0672 534.836H31.8875C31.8875 534.203 32.1102 533.594 32.5555 533.008C33.0086 532.414 33.618 531.945 34.3836 531.602C35.1571 531.258 36.0047 531.086 36.9266 531.086C38.3875 531.086 39.5321 531.453 40.3602 532.188C41.1883 532.914 41.618 533.918 41.6492 535.199V541.035C41.6492 542.199 41.7977 543.125 42.0946 543.812V544H39.8211ZM36.2235 542.348C36.9032 542.348 37.5477 542.172 38.1571 541.82C38.7664 541.469 39.2078 541.012 39.4813 540.449V537.848H37.7821C35.1258 537.848 33.7977 538.625 33.7977 540.18C33.7977 540.859 34.0242 541.391 34.4774 541.773C34.9305 542.156 35.5125 542.348 36.2235 542.348ZM47.9891 528.25V531.32H50.3563V532.996H47.9891V540.859C47.9891 541.367 48.0946 541.75 48.3055 542.008C48.5164 542.258 48.8758 542.383 49.3836 542.383C49.6336 542.383 49.9774 542.336 50.4149 542.242V544C49.8446 544.156 49.2899 544.234 48.7508 544.234C47.7821 544.234 47.0516 543.941 46.5594 543.355C46.0672 542.77 45.8211 541.938 45.8211 540.859V532.996H43.5125V531.32H45.8211V528.25H47.9891ZM60.7274 544C60.6024 543.75 60.5008 543.305 60.4227 542.664C59.4149 543.711 58.2117 544.234 56.8133 544.234C55.5633 544.234 54.536 543.883 53.7313 543.18C52.9344 542.469 52.536 541.57 52.536 540.484C52.536 539.164 53.036 538.141 54.036 537.414C55.0438 536.68 56.4578 536.312 58.2782 536.312H60.3875V535.316C60.3875 534.559 60.161 533.957 59.7078 533.512C59.2547 533.059 58.5867 532.832 57.7039 532.832C56.9305 532.832 56.2821 533.027 55.7586 533.418C55.2352 533.809 54.9735 534.281 54.9735 534.836H52.7938C52.7938 534.203 53.0164 533.594 53.4617 533.008C53.9149 532.414 54.5242 531.945 55.2899 531.602C56.0633 531.258 56.911 531.086 57.8328 531.086C59.2938 531.086 60.4383 531.453 61.2664 532.188C62.0946 532.914 62.5242 533.918 62.5555 535.199V541.035C62.5555 542.199 62.7039 543.125 63.0008 543.812V544H60.7274ZM57.1297 542.348C57.8094 542.348 58.4539 542.172 59.0633 541.82C59.6727 541.469 60.1141 541.012 60.3875 540.449V537.848H58.6883C56.0321 537.848 54.7039 538.625 54.7039 540.18C54.7039 540.859 54.9305 541.391 55.3836 541.773C55.8367 542.156 56.4188 542.348 57.1297 542.348ZM76.6883 537.801C76.6883 539.738 76.243 541.297 75.3524 542.477C74.4617 543.648 73.2664 544.234 71.7664 544.234C70.1649 544.234 68.9266 543.668 68.0516 542.535L67.9461 544H65.9539V526H68.1219V532.715C68.9969 531.629 70.2039 531.086 71.743 531.086C73.2821 531.086 74.4891 531.668 75.3641 532.832C76.2469 533.996 76.6883 535.59 76.6883 537.613V537.801ZM74.5203 537.555C74.5203 536.078 74.2352 534.938 73.6649 534.133C73.0946 533.328 72.2742 532.926 71.2039 532.926C69.7742 532.926 68.7469 533.59 68.1219 534.918V540.402C68.786 541.73 69.8211 542.395 71.2274 542.395C72.2664 542.395 73.075 541.992 73.6532 541.188C74.2313 540.383 74.5203 539.172 74.5203 537.555ZM87.2586 544C87.1336 543.75 87.0321 543.305 86.9539 542.664C85.9461 543.711 84.743 544.234 83.3446 544.234C82.0946 544.234 81.0672 543.883 80.2625 543.18C79.4657 542.469 79.0672 541.57 79.0672 540.484C79.0672 539.164 79.5672 538.141 80.5672 537.414C81.575 536.68 82.9891 536.312 84.8094 536.312H86.9188V535.316C86.9188 534.559 86.6922 533.957 86.2391 533.512C85.786 533.059 85.118 532.832 84.2352 532.832C83.4617 532.832 82.8133 533.027 82.2899 533.418C81.7664 533.809 81.5047 534.281 81.5047 534.836H79.325C79.325 534.203 79.5477 533.594 79.993 533.008C80.4461 532.414 81.0555 531.945 81.8211 531.602C82.5946 531.258 83.4422 531.086 84.3641 531.086C85.825 531.086 86.9696 531.453 87.7977 532.188C88.6258 532.914 89.0555 533.918 89.0867 535.199V541.035C89.0867 542.199 89.2352 543.125 89.5321 543.812V544H87.2586ZM83.661 542.348C84.3407 542.348 84.9852 542.172 85.5946 541.82C86.2039 541.469 86.6453 541.012 86.9188 540.449V537.848H85.2196C82.5633 537.848 81.2352 538.625 81.2352 540.18C81.2352 540.859 81.4617 541.391 81.9149 541.773C82.368 542.156 82.95 542.348 83.661 542.348ZM99.868 540.637C99.868 540.051 99.6453 539.598 99.2 539.277C98.7625 538.949 97.993 538.668 96.8914 538.434C95.7977 538.199 94.9266 537.918 94.2782 537.59C93.6375 537.262 93.161 536.871 92.8485 536.418C92.5438 535.965 92.3914 535.426 92.3914 534.801C92.3914 533.762 92.8289 532.883 93.7039 532.164C94.5867 531.445 95.7117 531.086 97.0789 531.086C98.5164 531.086 99.6805 531.457 100.571 532.199C101.47 532.941 101.919 533.891 101.919 535.047H99.7391C99.7391 534.453 99.4852 533.941 98.9774 533.512C98.4774 533.082 97.8446 532.867 97.0789 532.867C96.2899 532.867 95.6727 533.039 95.2274 533.383C94.7821 533.727 94.5594 534.176 94.5594 534.73C94.5594 535.254 94.7664 535.648 95.1805 535.914C95.5946 536.18 96.3407 536.434 97.4188 536.676C98.5047 536.918 99.3836 537.207 100.055 537.543C100.727 537.879 101.223 538.285 101.544 538.762C101.872 539.23 102.036 539.805 102.036 540.484C102.036 541.617 101.583 542.527 100.677 543.215C99.7703 543.895 98.5946 544.234 97.1492 544.234C96.1336 544.234 95.2352 544.055 94.4539 543.695C93.6727 543.336 93.0594 542.836 92.6141 542.195C92.1766 541.547 91.9578 540.848 91.9578 540.098H94.1258C94.1649 540.824 94.4539 541.402 94.993 541.832C95.5399 542.254 96.2586 542.465 97.1492 542.465C97.9696 542.465 98.6258 542.301 99.118 541.973C99.618 541.637 99.868 541.191 99.868 540.637ZM110.122 544.234C108.403 544.234 107.005 543.672 105.927 542.547C104.848 541.414 104.309 539.902 104.309 538.012V537.613C104.309 536.355 104.548 535.234 105.024 534.25C105.509 533.258 106.18 532.484 107.04 531.93C107.907 531.367 108.845 531.086 109.852 531.086C111.501 531.086 112.782 531.629 113.696 532.715C114.61 533.801 115.067 535.355 115.067 537.379V538.281H106.477C106.509 539.531 106.872 540.543 107.567 541.316C108.27 542.082 109.161 542.465 110.239 542.465C111.005 542.465 111.653 542.309 112.184 541.996C112.716 541.684 113.18 541.27 113.579 540.754L114.903 541.785C113.841 543.418 112.247 544.234 110.122 544.234ZM109.852 532.867C108.977 532.867 108.243 533.188 107.649 533.828C107.055 534.461 106.688 535.352 106.548 536.5H112.899V536.336C112.837 535.234 112.54 534.383 112.009 533.781C111.477 533.172 110.759 532.867 109.852 532.867Z" fill="#E5E5E5"/>
<g clip-path="url(#clip4)">
<path d="M126.023 457.758L100.339 413.09C99.3733 411.377 97.9768 409.946 96.2879 408.939C94.599 407.932 92.6763 407.383 90.7103 407.348H39.3333C37.367 407.382 35.444 407.93 33.7549 408.938C32.0659 409.945 30.6695 411.376 29.7044 413.09L4.01106 457.641C3.03433 459.34 2.52032 461.266 2.52032 463.227C2.52032 465.187 3.03433 467.113 4.01106 468.813L29.6946 513.734C30.6502 515.472 32.0391 516.933 33.7264 517.975C35.4137 519.017 37.3419 519.605 39.3236 519.682H90.7005C92.6819 519.614 94.6117 519.033 96.3012 517.995C97.9907 516.958 99.382 515.5 100.339 513.764L126.023 469.096C127.007 467.368 127.524 465.415 127.524 463.427C127.524 461.439 127.007 459.485 126.023 457.758V457.758Z" fill="#4285F4"/>
<path opacity="0.07" d="M86.0023 450.365L50.6703 453.617L43.8344 460.453L49.6937 466.313L43.8832 476.488L87.0472 519.652H90.6996C92.681 519.584 94.6108 519.003 96.3003 517.966C97.9898 516.929 99.3811 515.471 100.338 513.734L118.239 482.602L86.0023 450.365Z" fill="black"/>
<path d="M85.231 450.092H44.7623C44.6034 450.087 44.445 450.113 44.2966 450.17C44.1482 450.227 44.0126 450.313 43.8979 450.423C43.7833 450.533 43.6918 450.665 43.6289 450.811C43.566 450.957 43.533 451.114 43.5318 451.273V459.643C43.5318 459.956 43.6563 460.256 43.8779 460.478C44.0995 460.7 44.4 460.824 44.7134 460.824H85.231C85.5436 460.822 85.8427 460.696 86.0637 460.475C86.2848 460.254 86.4101 459.955 86.4127 459.643V451.273C86.4101 450.961 86.2848 450.662 86.0637 450.441C85.8427 450.22 85.5436 450.094 85.231 450.092V450.092ZM78.9713 457.904C78.4922 457.904 78.024 457.762 77.6257 457.496C77.2275 457.23 76.917 456.852 76.7337 456.409C76.5504 455.967 76.5025 455.48 76.5959 455.01C76.6894 454.54 76.92 454.109 77.2587 453.77C77.5974 453.431 78.029 453.2 78.4988 453.107C78.9686 453.014 79.4555 453.062 79.8981 453.245C80.3406 453.428 80.7188 453.739 80.985 454.137C81.2511 454.535 81.3931 455.003 81.3931 455.482C81.3931 455.8 81.3305 456.115 81.2088 456.409C81.0871 456.703 80.9087 456.97 80.6838 457.195C80.4589 457.42 80.1919 457.598 79.8981 457.72C79.6042 457.842 79.2893 457.904 78.9713 457.904Z" fill="white"/>
<path d="M85.2308 466.176H44.7621C44.599 466.17 44.4366 466.198 44.2848 466.258C44.1331 466.318 43.9953 466.409 43.8799 466.524C43.7645 466.639 43.6741 466.777 43.6142 466.929C43.5543 467.081 43.5262 467.243 43.5316 467.406V475.775C43.5342 476.088 43.6595 476.387 43.8805 476.608C44.1016 476.829 44.4006 476.954 44.7132 476.957H85.2308C85.5434 476.954 85.8425 476.829 86.0636 476.608C86.2846 476.387 86.4099 476.088 86.4125 475.775V467.357C86.4099 467.045 86.2846 466.746 86.0636 466.525C85.8425 466.304 85.5434 466.178 85.2308 466.176V466.176ZM78.9711 473.988C78.4921 473.988 78.0238 473.846 77.6255 473.58C77.2273 473.314 76.9169 472.936 76.7335 472.493C76.5502 472.051 76.5023 471.564 76.5957 471.094C76.6892 470.624 76.9198 470.192 77.2585 469.854C77.5972 469.515 78.0288 469.284 78.4986 469.191C78.9684 469.098 79.4553 469.145 79.8979 469.329C80.3404 469.512 80.7187 469.822 80.9848 470.221C81.2509 470.619 81.3929 471.087 81.3929 471.566C81.3929 471.884 81.3303 472.199 81.2086 472.493C81.0869 472.787 80.9085 473.054 80.6836 473.279C80.4587 473.504 80.1917 473.682 79.8979 473.804C79.604 473.926 79.2891 473.988 78.9711 473.988Z" fill="white"/>
</g>
<g clip-path="url(#clip5)">
<path d="M567.023 54.7578L541.339 10.0898C540.373 8.377 538.977 6.94616 537.288 5.93899C535.599 4.93183 533.676 4.38328 531.71 4.34766H480.333C478.367 4.3823 476.444 4.93045 474.755 5.93772C473.066 6.94498 471.67 8.37636 470.704 10.0898L445.011 54.6406C444.034 56.3403 443.52 58.2663 443.52 60.2266C443.52 62.1869 444.034 64.1129 445.011 65.8125L470.695 110.734C471.65 112.472 473.039 113.933 474.726 114.975C476.414 116.017 478.342 116.605 480.324 116.682H531.701C533.682 116.614 535.612 116.033 537.301 114.995C538.991 113.958 540.382 112.5 541.339 110.764L567.023 66.0957C568.007 64.3683 568.524 62.4146 568.524 60.4268C568.524 58.4389 568.007 56.4852 567.023 54.7578V54.7578Z" fill="#4285F4"/>
<path opacity="0.07" d="M510.02 37.248L506.114 36.5352L502.11 45.0313L505.498 48.4199L504.522 53.9082L510.137 59.5234L494.981 61.0566L490.498 56.5938L482.686 64.4648L534.493 116.271C537.406 115.376 539.868 113.402 541.377 110.754L556.739 83.9375L510.02 37.248Z" fill="black"/>
<path d="M506.016 46.623C509.085 46.623 511.573 44.1352 511.573 41.0664C511.573 37.9975 509.085 35.5097 506.016 35.5097C502.947 35.5097 500.459 37.9975 500.459 41.0664C500.459 44.1352 502.947 46.623 506.016 46.623Z" fill="white"/>
<path d="M506.016 85.5098C509.085 85.5098 511.573 83.022 511.573 79.9531C511.573 76.8843 509.085 74.3965 506.016 74.3965C502.947 74.3965 500.459 76.8843 500.459 79.9531C500.459 83.022 502.947 85.5098 506.016 85.5098Z" fill="white"/>
<path d="M486.573 66.0663C489.641 66.0663 492.129 63.5785 492.129 60.5097C492.129 57.4408 489.641 54.953 486.573 54.953C483.504 54.953 481.016 57.4408 481.016 60.5097C481.016 63.5785 483.504 66.0663 486.573 66.0663Z" fill="white"/>
<path d="M525.459 66.0663C528.528 66.0663 531.016 63.5785 531.016 60.5097C531.016 57.4408 528.528 54.953 525.459 54.953C522.391 54.953 519.903 57.4408 519.903 60.5097C519.903 63.5785 522.391 66.0663 525.459 66.0663Z" fill="white"/>
<path d="M504.6 81.4765L481.641 58.7128H520.694L504.6 42.5898L507.432 39.5917L530.401 62.3066H491.338L507.432 78.4785L504.6 81.4765Z" fill="white"/>
<path d="M506.953 67.0918H504.561V80.2656H506.953V67.0918Z" fill="white"/>
<path d="M506.953 40.7441H504.561V53.918H506.953V40.7441Z" fill="white"/>
</g>
<path d="M455.192 135.586C454.981 137.391 454.313 138.785 453.188 139.77C452.071 140.746 450.583 141.234 448.723 141.234C446.708 141.234 445.091 140.512 443.872 139.066C442.661 137.621 442.056 135.688 442.056 133.266V131.625C442.056 130.039 442.337 128.645 442.899 127.441C443.47 126.238 444.274 125.316 445.313 124.676C446.352 124.027 447.556 123.703 448.923 123.703C450.735 123.703 452.188 124.211 453.282 125.227C454.376 126.234 455.013 127.633 455.192 129.422H452.931C452.735 128.062 452.309 127.078 451.653 126.469C451.005 125.859 450.095 125.555 448.923 125.555C447.485 125.555 446.356 126.086 445.536 127.148C444.723 128.211 444.317 129.723 444.317 131.684V133.336C444.317 135.188 444.704 136.66 445.477 137.754C446.251 138.848 447.333 139.395 448.723 139.395C449.973 139.395 450.931 139.113 451.595 138.551C452.266 137.98 452.712 136.992 452.931 135.586H455.192ZM460.29 141H458.122V123H460.29V141ZM463.196 134.543C463.196 133.301 463.438 132.184 463.923 131.191C464.415 130.199 465.095 129.434 465.962 128.895C466.837 128.355 467.833 128.086 468.95 128.086C470.677 128.086 472.071 128.684 473.134 129.879C474.204 131.074 474.739 132.664 474.739 134.648V134.801C474.739 136.035 474.501 137.145 474.024 138.129C473.556 139.105 472.88 139.867 471.997 140.414C471.122 140.961 470.114 141.234 468.973 141.234C467.255 141.234 465.86 140.637 464.79 139.441C463.727 138.246 463.196 136.664 463.196 134.695V134.543ZM465.376 134.801C465.376 136.207 465.7 137.336 466.348 138.188C467.005 139.039 467.88 139.465 468.973 139.465C470.075 139.465 470.95 139.035 471.598 138.176C472.247 137.309 472.571 136.098 472.571 134.543C472.571 133.152 472.239 132.027 471.575 131.168C470.919 130.301 470.044 129.867 468.95 129.867C467.88 129.867 467.016 130.293 466.36 131.145C465.704 131.996 465.376 133.215 465.376 134.801ZM485.286 139.746C484.442 140.738 483.204 141.234 481.571 141.234C480.22 141.234 479.188 140.844 478.477 140.062C477.774 139.273 477.419 138.109 477.411 136.57V128.32H479.579V136.512C479.579 138.434 480.36 139.395 481.923 139.395C483.579 139.395 484.681 138.777 485.227 137.543V128.32H487.395V141H485.333L485.286 139.746ZM490.173 134.555C490.173 132.609 490.634 131.047 491.556 129.867C492.477 128.68 493.684 128.086 495.177 128.086C496.661 128.086 497.837 128.594 498.704 129.609V123H500.872V141H498.88L498.774 139.641C497.907 140.703 496.7 141.234 495.153 141.234C493.684 141.234 492.485 140.633 491.556 139.43C490.634 138.227 490.173 136.656 490.173 134.719V134.555ZM492.341 134.801C492.341 136.238 492.638 137.363 493.231 138.176C493.825 138.988 494.645 139.395 495.692 139.395C497.067 139.395 498.071 138.777 498.704 137.543V131.719C498.056 130.523 497.059 129.926 495.716 129.926C494.653 129.926 493.825 130.336 493.231 131.156C492.638 131.977 492.341 133.191 492.341 134.801ZM510.54 141V123.938H516.118C517.97 123.938 519.36 124.32 520.29 125.086C521.227 125.852 521.696 126.984 521.696 128.484C521.696 129.281 521.47 129.988 521.016 130.605C520.563 131.215 519.946 131.688 519.165 132.023C520.087 132.281 520.813 132.773 521.345 133.5C521.884 134.219 522.153 135.078 522.153 136.078C522.153 137.609 521.657 138.812 520.665 139.688C519.673 140.562 518.27 141 516.458 141H510.54ZM512.79 133.02V139.16H516.505C517.552 139.16 518.376 138.891 518.977 138.352C519.587 137.805 519.891 137.055 519.891 136.102C519.891 134.047 518.774 133.02 516.54 133.02H512.79ZM512.79 131.215H516.188C517.173 131.215 517.958 130.969 518.544 130.477C519.138 129.984 519.434 129.316 519.434 128.473C519.434 127.535 519.161 126.855 518.614 126.434C518.067 126.004 517.235 125.789 516.118 125.789H512.79V131.215ZM531.282 130.266C530.954 130.211 530.598 130.184 530.216 130.184C528.794 130.184 527.829 130.789 527.321 132V141H525.153V128.32H527.263L527.298 129.785C528.009 128.652 529.016 128.086 530.321 128.086C530.743 128.086 531.063 128.141 531.282 128.25V130.266ZM532.477 134.543C532.477 133.301 532.72 132.184 533.204 131.191C533.696 130.199 534.376 129.434 535.243 128.895C536.118 128.355 537.114 128.086 538.231 128.086C539.958 128.086 541.352 128.684 542.415 129.879C543.485 131.074 544.02 132.664 544.02 134.648V134.801C544.02 136.035 543.782 137.145 543.306 138.129C542.837 139.105 542.161 139.867 541.278 140.414C540.403 140.961 539.395 141.234 538.255 141.234C536.536 141.234 535.141 140.637 534.071 139.441C533.009 138.246 532.477 136.664 532.477 134.695V134.543ZM534.657 134.801C534.657 136.207 534.981 137.336 535.63 138.188C536.286 139.039 537.161 139.465 538.255 139.465C539.356 139.465 540.231 139.035 540.88 138.176C541.528 137.309 541.852 136.098 541.852 134.543C541.852 133.152 541.52 132.027 540.856 131.168C540.2 130.301 539.325 129.867 538.231 129.867C537.161 129.867 536.298 130.293 535.641 131.145C534.985 131.996 534.657 133.215 534.657 134.801ZM550.278 135.129L548.919 136.547V141H546.751V123H548.919V133.887L550.079 132.492L554.028 128.32H556.665L551.731 133.617L557.239 141H554.696L550.278 135.129ZM563.931 141.234C562.212 141.234 560.813 140.672 559.735 139.547C558.657 138.414 558.118 136.902 558.118 135.012V134.613C558.118 133.355 558.356 132.234 558.833 131.25C559.317 130.258 559.989 129.484 560.848 128.93C561.716 128.367 562.653 128.086 563.661 128.086C565.309 128.086 566.591 128.629 567.505 129.715C568.419 130.801 568.876 132.355 568.876 134.379V135.281H560.286C560.317 136.531 560.681 137.543 561.376 138.316C562.079 139.082 562.97 139.465 564.048 139.465C564.813 139.465 565.462 139.309 565.993 138.996C566.524 138.684 566.989 138.27 567.388 137.754L568.712 138.785C567.649 140.418 566.056 141.234 563.931 141.234ZM563.661 129.867C562.786 129.867 562.052 130.188 561.458 130.828C560.864 131.461 560.497 132.352 560.356 133.5H566.708V133.336C566.645 132.234 566.348 131.383 565.817 130.781C565.286 130.172 564.567 129.867 563.661 129.867ZM577.524 130.266C577.196 130.211 576.841 130.184 576.458 130.184C575.036 130.184 574.071 130.789 573.563 132V141H571.395V128.32H573.505L573.54 129.785C574.251 128.652 575.259 128.086 576.563 128.086C576.985 128.086 577.306 128.141 577.524 128.25V130.266Z" fill="#E5E5E5"/>
<g clip-path="url(#clip6)">
<path d="M126.507 54.7578L100.823 10.0898C99.8574 8.377 98.4609 6.94616 96.772 5.93899C95.0831 4.93183 93.1604 4.38328 91.1943 4.34766H39.8174C37.8511 4.3823 35.928 4.93045 34.239 5.93772C32.5499 6.94498 31.1536 8.37636 30.1885 10.0898L4.49513 54.6406C3.5184 56.3403 3.00439 58.2663 3.00439 60.2266C3.00439 62.1869 3.5184 64.1129 4.49513 65.8125L30.1787 110.734C31.1343 112.472 32.5232 113.933 34.2105 114.975C35.8977 116.017 37.8259 116.605 39.8076 116.682H91.1846C93.166 116.614 95.0958 116.033 96.7853 114.995C98.4748 113.958 99.8661 112.5 100.823 110.764L126.507 66.0957C127.491 64.3683 128.008 62.4146 128.008 60.4268C128.008 58.4389 127.491 56.4852 126.507 54.7578V54.7578Z" fill="#4285F4"/>
<path opacity="0.07" d="M96.1837 40.4902L93.9571 42.4434L76.7598 32.707L68.5762 24.5234L35.1485 46.1152L37.043 48.0098L36.6426 72.4238L35.1583 78.1856L73.586 116.652H91.1641C93.1455 116.584 95.0753 116.003 96.7648 114.966C98.4543 113.929 99.8457 112.471 100.803 110.734L124.777 69.0742L96.1837 40.4902Z" fill="black"/>
<path d="M65.7734 31.3398C67.9739 31.3398 69.7578 29.556 69.7578 27.3555C69.7578 25.155 67.9739 23.3711 65.7734 23.3711C63.5729 23.3711 61.7891 25.155 61.7891 27.3555C61.7891 29.556 63.5729 31.3398 65.7734 31.3398Z" fill="white"/>
<path d="M93.3712 47.2969C95.5717 47.2969 97.3555 45.513 97.3555 43.3125C97.3555 41.112 95.5717 39.3281 93.3712 39.3281C91.1706 39.3281 89.3868 41.112 89.3868 43.3125C89.3868 45.513 91.1706 47.2969 93.3712 47.2969Z" fill="white"/>
<path d="M37.9805 47.2969C40.181 47.2969 41.9649 45.513 41.9649 43.3125C41.9649 41.112 40.181 39.3281 37.9805 39.3281C35.78 39.3281 33.9962 41.112 33.9962 43.3125C33.9962 45.513 35.78 47.2969 37.9805 47.2969Z" fill="white"/>
<path d="M65.7735 66.7012C69.2307 66.7012 72.0333 63.8986 72.0333 60.4414C72.0333 56.9842 69.2307 54.1816 65.7735 54.1816C62.3163 54.1816 59.5137 56.9842 59.5137 60.4414C59.5137 63.8986 62.3163 66.7012 65.7735 66.7012Z" fill="white"/>
<path d="M93.3712 79.3965C95.5717 79.3965 97.3555 77.6126 97.3555 75.4121C97.3555 73.2116 95.5717 71.4277 93.3712 71.4277C91.1706 71.4277 89.3868 73.2116 89.3868 75.4121C89.3868 77.6126 91.1706 79.3965 93.3712 79.3965Z" fill="white"/>
<path d="M37.9805 79.3965C40.181 79.3965 41.9649 77.6126 41.9649 75.4121C41.9649 73.2116 40.181 71.4277 37.9805 71.4277C35.78 71.4277 33.9962 73.2116 33.9962 75.4121C33.9962 77.6126 35.78 79.3965 37.9805 79.3965Z" fill="white"/>
<path d="M65.6367 61.7988L34.8555 43.332L65.6367 25.5293L96.3984 42.9902L65.6367 61.7988ZM40.5488 43.3809L65.627 58.4199L90.7148 43.0879L65.6563 28.8594L40.5488 43.3809Z" fill="white"/>
<path d="M65.6465 95.9395L34.7676 75.2266L65.7344 58.0781L96.1641 75.4121L65.6465 95.9395ZM40.2559 75.4316L65.6465 92.4336L90.6856 75.6172L65.7149 61.3887L40.2559 75.4316Z" fill="white"/>
<path d="M38.8026 42.5044L36.2695 43.897L64.1868 94.6783L66.7198 93.2857L38.8026 42.5044Z" fill="white"/>
<path d="M91.8206 43.0158L64.5513 93.6604L67.0964 95.0308L94.3657 44.3862L91.8206 43.0158Z" fill="white"/>
<path d="M64.1898 26.737L36.6312 74.4699L39.1345 75.9152L66.6931 28.1823L64.1898 26.737Z" fill="white"/>
<path d="M67.0857 26.4837L64.5745 27.9154L92.2227 76.4075L94.7338 74.9758L67.0857 26.4837Z" fill="white"/>
<path d="M67.2286 26.9453H64.338V93.9375H67.2286V26.9453Z" fill="white"/>
<path d="M38.918 43.6445H36.0273V75.9688H38.918V43.6445Z" fill="white"/>
<path d="M94.8067 43.3027H91.9161V75.627H94.8067V43.3027Z" fill="white"/>
<path d="M65.7734 98.0488C67.9739 98.0488 69.7578 96.265 69.7578 94.0645C69.7578 91.8639 67.9739 90.0801 65.7734 90.0801C63.5729 90.0801 61.7891 91.8639 61.7891 94.0645C61.7891 96.265 63.5729 98.0488 65.7734 98.0488Z" fill="white"/>
</g>
<path d="M257.453 331H248.406V299.453H214V331H205V262.75H214V292.094H248.406V262.75H257.453V331ZM293.125 331.938C286.25 331.938 280.656 329.688 276.344 325.188C272.031 320.656 269.875 314.609 269.875 307.047V305.453C269.875 300.422 270.828 295.938 272.734 292C274.672 288.031 277.359 284.938 280.797 282.719C284.266 280.469 288.016 279.344 292.047 279.344C298.641 279.344 303.766 281.516 307.422 285.859C311.078 290.203 312.906 296.422 312.906 304.516V308.125H278.547C278.672 313.125 280.125 317.172 282.906 320.266C285.719 323.328 289.281 324.859 293.594 324.859C296.656 324.859 299.25 324.234 301.375 322.984C303.5 321.734 305.359 320.078 306.953 318.016L312.25 322.141C308 328.672 301.625 331.938 293.125 331.938ZM292.047 286.469C288.547 286.469 285.609 287.75 283.234 290.312C280.859 292.844 279.391 296.406 278.828 301H304.234V300.344C303.984 295.938 302.797 292.531 300.672 290.125C298.547 287.688 295.672 286.469 292.047 286.469ZM340 298.797L351.25 280.281H361.375L344.781 305.359L361.891 331H351.859L340.141 312.016L328.422 331H318.344L335.453 305.359L318.859 280.281H328.891L340 298.797ZM401.922 331C401.422 330 401.016 328.219 400.703 325.656C396.672 329.844 391.859 331.938 386.266 331.938C381.266 331.938 377.156 330.531 373.938 327.719C370.75 324.875 369.156 321.281 369.156 316.938C369.156 311.656 371.156 307.562 375.156 304.656C379.188 301.719 384.844 300.25 392.125 300.25H400.562V296.266C400.562 293.234 399.656 290.828 397.844 289.047C396.031 287.234 393.359 286.328 389.828 286.328C386.734 286.328 384.141 287.109 382.047 288.672C379.953 290.234 378.906 292.125 378.906 294.344H370.188C370.188 291.812 371.078 289.375 372.859 287.031C374.672 284.656 377.109 282.781 380.172 281.406C383.266 280.031 386.656 279.344 390.344 279.344C396.188 279.344 400.766 280.812 404.078 283.75C407.391 286.656 409.109 290.672 409.234 295.797V319.141C409.234 323.797 409.828 327.5 411.016 330.25V331H401.922ZM387.531 324.391C390.25 324.391 392.828 323.688 395.266 322.281C397.703 320.875 399.469 319.047 400.562 316.797V306.391H393.766C383.141 306.391 377.828 309.5 377.828 315.719C377.828 318.438 378.734 320.562 380.547 322.094C382.359 323.625 384.688 324.391 387.531 324.391ZM432.25 331H423.578V259H432.25V331ZM457.938 268V280.281H467.406V286.984H457.938V318.438C457.938 320.469 458.359 322 459.203 323.031C460.047 324.031 461.484 324.531 463.516 324.531C464.516 324.531 465.891 324.344 467.641 323.969V331C465.359 331.625 463.141 331.938 460.984 331.938C457.109 331.938 454.188 330.766 452.219 328.422C450.25 326.078 449.266 322.75 449.266 318.438V286.984H440.031V280.281H449.266V268H457.938ZM507.109 317.547C507.109 315.203 506.219 313.391 504.438 312.109C502.688 310.797 499.609 309.672 495.203 308.734C490.828 307.797 487.344 306.672 484.75 305.359C482.188 304.047 480.281 302.484 479.031 300.672C477.812 298.859 477.203 296.703 477.203 294.203C477.203 290.047 478.953 286.531 482.453 283.656C485.984 280.781 490.484 279.344 495.953 279.344C501.703 279.344 506.359 280.828 509.922 283.797C513.516 286.766 515.312 290.562 515.312 295.188H506.594C506.594 292.812 505.578 290.766 503.547 289.047C501.547 287.328 499.016 286.469 495.953 286.469C492.797 286.469 490.328 287.156 488.547 288.531C486.766 289.906 485.875 291.703 485.875 293.922C485.875 296.016 486.703 297.594 488.359 298.656C490.016 299.719 493 300.734 497.312 301.703C501.656 302.672 505.172 303.828 507.859 305.172C510.547 306.516 512.531 308.141 513.812 310.047C515.125 311.922 515.781 314.219 515.781 316.938C515.781 321.469 513.969 325.109 510.344 327.859C506.719 330.578 502.016 331.938 496.234 331.938C492.172 331.938 488.578 331.219 485.453 329.781C482.328 328.344 479.875 326.344 478.094 323.781C476.344 321.188 475.469 318.391 475.469 315.391H484.141C484.297 318.297 485.453 320.609 487.609 322.328C489.797 324.016 492.672 324.859 496.234 324.859C499.516 324.859 502.141 324.203 504.109 322.891C506.109 321.547 507.109 319.766 507.109 317.547ZM590.828 299.453H561.25V323.641H595.609V331H552.25V262.75H595.141V270.156H561.25V292.094H590.828V299.453ZM624.859 324.859C627.953 324.859 630.656 323.922 632.969 322.047C635.281 320.172 636.562 317.828 636.812 315.016H645.016C644.859 317.922 643.859 320.688 642.016 323.312C640.172 325.938 637.703 328.031 634.609 329.594C631.547 331.156 628.297 331.938 624.859 331.938C617.953 331.938 612.453 329.641 608.359 325.047C604.297 320.422 602.266 314.109 602.266 306.109V304.656C602.266 299.719 603.172 295.328 604.984 291.484C606.797 287.641 609.391 284.656 612.766 282.531C616.172 280.406 620.188 279.344 624.812 279.344C630.5 279.344 635.219 281.047 638.969 284.453C642.75 287.859 644.766 292.281 645.016 297.719H636.812C636.562 294.438 635.312 291.75 633.062 289.656C630.844 287.531 628.094 286.469 624.812 286.469C620.406 286.469 616.984 288.062 614.547 291.25C612.141 294.406 610.938 298.984 610.938 304.984V306.625C610.938 312.469 612.141 316.969 614.547 320.125C616.953 323.281 620.391 324.859 624.859 324.859ZM652.469 305.172C652.469 300.203 653.438 295.734 655.375 291.766C657.344 287.797 660.062 284.734 663.531 282.578C667.031 280.422 671.016 279.344 675.484 279.344C682.391 279.344 687.969 281.734 692.219 286.516C696.5 291.297 698.641 297.656 698.641 305.594V306.203C698.641 311.141 697.688 315.578 695.781 319.516C693.906 323.422 691.203 326.469 687.672 328.656C684.172 330.844 680.141 331.938 675.578 331.938C668.703 331.938 663.125 329.547 658.844 324.766C654.594 319.984 652.469 313.656 652.469 305.781V305.172ZM661.188 306.203C661.188 311.828 662.484 316.344 665.078 319.75C667.703 323.156 671.203 324.859 675.578 324.859C679.984 324.859 683.484 323.141 686.078 319.703C688.672 316.234 689.969 311.391 689.969 305.172C689.969 299.609 688.641 295.109 685.984 291.672C683.359 288.203 679.859 286.469 675.484 286.469C671.203 286.469 667.75 288.172 665.125 291.578C662.5 294.984 661.188 299.859 661.188 306.203ZM739.047 317.547C739.047 315.203 738.156 313.391 736.375 312.109C734.625 310.797 731.547 309.672 727.141 308.734C722.766 307.797 719.281 306.672 716.688 305.359C714.125 304.047 712.219 302.484 710.969 300.672C709.75 298.859 709.141 296.703 709.141 294.203C709.141 290.047 710.891 286.531 714.391 283.656C717.922 280.781 722.422 279.344 727.891 279.344C733.641 279.344 738.297 280.828 741.859 283.797C745.453 286.766 747.25 290.562 747.25 295.188H738.531C738.531 292.812 737.516 290.766 735.484 289.047C733.484 287.328 730.953 286.469 727.891 286.469C724.734 286.469 722.266 287.156 720.484 288.531C718.703 289.906 717.812 291.703 717.812 293.922C717.812 296.016 718.641 297.594 720.297 298.656C721.953 299.719 724.938 300.734 729.25 301.703C733.594 302.672 737.109 303.828 739.797 305.172C742.484 306.516 744.469 308.141 745.75 310.047C747.062 311.922 747.719 314.219 747.719 316.938C747.719 321.469 745.906 325.109 742.281 327.859C738.656 330.578 733.953 331.938 728.172 331.938C724.109 331.938 720.516 331.219 717.391 329.781C714.266 328.344 711.812 326.344 710.031 323.781C708.281 321.188 707.406 318.391 707.406 315.391H716.078C716.234 318.297 717.391 320.609 719.547 322.328C721.734 324.016 724.609 324.859 728.172 324.859C731.453 324.859 734.078 324.203 736.047 322.891C738.047 321.547 739.047 319.766 739.047 317.547ZM775.609 318.297L787.422 280.281H796.703L776.312 338.828C773.156 347.266 768.141 351.484 761.266 351.484L759.625 351.344L756.391 350.734V343.703L758.734 343.891C761.672 343.891 763.953 343.297 765.578 342.109C767.234 340.922 768.594 338.75 769.656 335.594L771.578 330.438L753.484 280.281H762.953L775.609 318.297ZM834.016 317.547C834.016 315.203 833.125 313.391 831.344 312.109C829.594 310.797 826.516 309.672 822.109 308.734C817.734 307.797 814.25 306.672 811.656 305.359C809.094 304.047 807.188 302.484 805.938 300.672C804.719 298.859 804.109 296.703 804.109 294.203C804.109 290.047 805.859 286.531 809.359 283.656C812.891 280.781 817.391 279.344 822.859 279.344C828.609 279.344 833.266 280.828 836.828 283.797C840.422 286.766 842.219 290.562 842.219 295.188H833.5C833.5 292.812 832.484 290.766 830.453 289.047C828.453 287.328 825.922 286.469 822.859 286.469C819.703 286.469 817.234 287.156 815.453 288.531C813.672 289.906 812.781 291.703 812.781 293.922C812.781 296.016 813.609 297.594 815.266 298.656C816.922 299.719 819.906 300.734 824.219 301.703C828.562 302.672 832.078 303.828 834.766 305.172C837.453 306.516 839.438 308.141 840.719 310.047C842.031 311.922 842.688 314.219 842.688 316.938C842.688 321.469 840.875 325.109 837.25 327.859C833.625 330.578 828.922 331.938 823.141 331.938C819.078 331.938 815.484 331.219 812.359 329.781C809.234 328.344 806.781 326.344 805 323.781C803.25 321.188 802.375 318.391 802.375 315.391H811.047C811.203 318.297 812.359 320.609 814.516 322.328C816.703 324.016 819.578 324.859 823.141 324.859C826.422 324.859 829.047 324.203 831.016 322.891C833.016 321.547 834.016 319.766 834.016 317.547ZM865.75 268V280.281H875.219V286.984H865.75V318.438C865.75 320.469 866.172 322 867.016 323.031C867.859 324.031 869.297 324.531 871.328 324.531C872.328 324.531 873.703 324.344 875.453 323.969V331C873.172 331.625 870.953 331.938 868.797 331.938C864.922 331.938 862 330.766 860.031 328.422C858.062 326.078 857.078 322.75 857.078 318.438V286.984H847.844V280.281H857.078V268H865.75ZM906.438 331.938C899.562 331.938 893.969 329.688 889.656 325.188C885.344 320.656 883.188 314.609 883.188 307.047V305.453C883.188 300.422 884.141 295.938 886.047 292C887.984 288.031 890.672 284.938 894.109 282.719C897.578 280.469 901.328 279.344 905.359 279.344C911.953 279.344 917.078 281.516 920.734 285.859C924.391 290.203 926.219 296.422 926.219 304.516V308.125H891.859C891.984 313.125 893.438 317.172 896.219 320.266C899.031 323.328 902.594 324.859 906.906 324.859C909.969 324.859 912.562 324.234 914.688 322.984C916.812 321.734 918.672 320.078 920.266 318.016L925.562 322.141C921.312 328.672 914.938 331.938 906.438 331.938ZM905.359 286.469C901.859 286.469 898.922 287.75 896.547 290.312C894.172 292.844 892.703 296.406 892.141 301H917.547V300.344C917.297 295.938 916.109 292.531 913.984 290.125C911.859 287.688 908.984 286.469 905.359 286.469ZM944.453 280.281L944.688 285.906C948.406 281.531 953.422 279.344 959.734 279.344C966.828 279.344 971.656 282.062 974.219 287.5C975.906 285.062 978.094 283.094 980.781 281.594C983.5 280.094 986.703 279.344 990.391 279.344C1001.52 279.344 1007.17 285.234 1007.36 297.016V331H998.688V297.531C998.688 293.906 997.859 291.203 996.203 289.422C994.547 287.609 991.766 286.703 987.859 286.703C984.641 286.703 981.969 287.672 979.844 289.609C977.719 291.516 976.484 294.094 976.141 297.344V331H967.422V297.766C967.422 290.391 963.812 286.703 956.594 286.703C950.906 286.703 947.016 289.125 944.922 293.969V331H936.25V280.281H944.453Z" fill="#E5E5E5"/>
<path d="M57.3207 192H55.141V177.551L50.7699 179.156V177.188L56.9808 174.855H57.3207V192Z" fill="#E5E5E5"/>
<path d="M51.7581 136.885H47.7503V143.787H45.4885V126.725H51.137C53.0588 126.725 54.5354 127.162 55.5667 128.037C56.6057 128.912 57.1253 130.186 57.1253 131.857C57.1253 132.92 56.8362 133.846 56.2581 134.635C55.6878 135.424 54.8909 136.014 53.8674 136.404L57.8753 143.646V143.787H55.4612L51.7581 136.885ZM47.7503 135.045H51.2073C52.3245 135.045 53.2112 134.756 53.8674 134.178C54.5315 133.6 54.8635 132.826 54.8635 131.857C54.8635 130.803 54.5471 129.994 53.9143 129.432C53.2893 128.869 52.3831 128.584 51.1956 128.576H47.7503V135.045ZM60.2893 143.787V126.725H65.1057C66.5901 126.725 67.9026 127.053 69.0432 127.709C70.1838 128.365 71.0628 129.299 71.6799 130.51C72.3049 131.721 72.6213 133.111 72.6292 134.682V135.771C72.6292 137.381 72.3167 138.791 71.6917 140.002C71.0745 141.213 70.1878 142.143 69.0315 142.791C67.8831 143.439 66.5432 143.771 65.012 143.787H60.2893ZM62.5393 128.576V141.947H64.9065C66.6409 141.947 67.9885 141.408 68.9495 140.33C69.9182 139.252 70.4026 137.717 70.4026 135.725V134.728C70.4026 132.791 69.9456 131.287 69.0315 130.217C68.1253 129.139 66.8362 128.592 65.1643 128.576H62.5393ZM76.0393 143.787V126.725H81.6174C83.469 126.725 84.8596 127.107 85.7893 127.873C86.7268 128.639 87.1956 129.771 87.1956 131.271C87.1956 132.068 86.969 132.775 86.5159 133.393C86.0628 134.002 85.4456 134.475 84.6643 134.811C85.5862 135.068 86.3128 135.561 86.844 136.287C87.3831 137.006 87.6526 137.865 87.6526 138.865C87.6526 140.396 87.1565 141.6 86.1643 142.475C85.1721 143.35 83.7698 143.787 81.9573 143.787H76.0393ZM78.2893 135.807V141.947H82.0042C83.051 141.947 83.8753 141.678 84.4768 141.139C85.0862 140.592 85.3909 139.842 85.3909 138.889C85.3909 136.834 84.2737 135.807 82.0393 135.807H78.2893ZM78.2893 134.002H81.6878C82.6721 134.002 83.4573 133.756 84.0432 133.264C84.637 132.771 84.9338 132.103 84.9338 131.26C84.9338 130.322 84.6604 129.643 84.1135 129.221C83.5667 128.791 82.7346 128.576 81.6174 128.576H78.2893V134.002Z" fill="#E5E5E5"/>
</g>
<defs>
<clipPath id="clip0">
<rect width="1077" height="565" fill="white"/>
</clipPath>
<clipPath id="clip1">
<rect width="40" height="40" fill="white" transform="translate(1023.52 33)"/>
</clipPath>
<clipPath id="clip2">
<rect width="125" height="125" fill="white" transform="translate(888.516 -6)"/>
</clipPath>
<clipPath id="clip3">
<rect width="43" height="43" fill="white" transform="translate(929.516 23)"/>
</clipPath>
<clipPath id="clip4">
<rect width="125" height="125" fill="white" transform="translate(2.51599 401)"/>
</clipPath>
<clipPath id="clip5">
<rect width="125" height="125" fill="white" transform="translate(443.516 -2)"/>
</clipPath>
<clipPath id="clip6">
<rect width="125" height="125" fill="white" transform="translate(3 -2)"/>
</clipPath>
</defs>
</svg>
